<?xml version="1.0" encoding="utf-8"?>
<!-- Generator: Adobe Illustrator 22.0.1, SVG Export Plug-In . SVG Version: 6.00 Build 0)  -->
<svg version="1.1" id="Layer_1" xmlns="http://www.w3.org/2000/svg" xmlns:xlink="http://www.w3.org/1999/xlink" x="0px" y="0px"
	 viewBox="0 0 286 48" style="enable-background:new 0 0 286 48;" xml:space="preserve">
<style type="text/css">
	.st0{fill:#121212;}
	.st1{fill:#E2120B;}
	.st2{fill:#FFFFFE;}
</style>
<title>Group 2</title>
<desc>Created with Sketch.</desc>
<g id="Page-3">
	<g id="Group-2">
		<path id="ELEMENTS" class="st0" d="M214.6,29h-7.5V17.7h7.2V20h-4.6v2h4.2v2.3h-4.2v2.3h4.9V29z M223.7,29h-7.4V17.7h2.6v8.9h4.8
			V29z M232.6,29h-7.5V17.7h7.2V20h-4.6v2h4.2v2.3h-4.2v2.3h4.9V29z M236.8,29h-2.6V17.7h2.8c2,3.1,2.3,3.7,2.8,4.5
			c0.4-0.8,0.8-1.4,2.8-4.5h2.8V29h-2.6c0-5.3,0-6.4,0.1-7.7c-0.4,0.7-0.9,1.4-3.1,4.7c-2.1-3.3-2.6-4-3-4.7
			C236.8,22.6,236.8,23.8,236.8,29z M255.1,29h-7.5V17.7h7.2V20h-4.6v2h4.2v2.3h-4.2v2.3h4.9V29z M259.2,29h-2.5V17.7h2.4
			c3.6,5.1,4.1,5.7,4.8,6.8c0-1.3-0.1-3-0.1-6.8h2.5V29h-2.2c-3.7-5.5-4.3-6.4-4.9-7.3C259.2,22.6,259.2,23.2,259.2,29z M273.6,29
			H271v-8.9h-3.1v-2.4h8.9v2.4h-3.2V29z M277.7,28.1v-2.6c1.1,0.9,2.8,1.4,4,1.4c1.1,0,1.6-0.4,1.6-1.1c0-0.5-0.3-0.8-1.2-1.2
			l-1.5-0.6c-2-0.7-2.8-1.7-2.8-3.4c0-1.9,1.4-3.3,4.3-3.3c1.2,0,2.5,0.3,3.3,0.8v2.5c-0.9-0.7-2.4-1.1-3.5-1.1c-1,0-1.5,0.4-1.5,1
			c0,0.6,0.3,0.8,1.1,1.1l1.5,0.6c2.4,0.9,3,1.9,3,3.4c0,1.8-1.3,3.4-4.3,3.4C280,29.2,278.6,28.7,277.7,28.1z"/>
		<g id="EIU_PL_RGB">
			<polygon id="Fill-1" class="st1" points="0,47.6 95,47.6 95,0.1 0,0.1 			"/>
			<path id="Fill-2" class="st2" d="M43.9,9.9l0.1,2.3l-0.5,0c0-1.4-0.3-1.6-2.5-1.6h-0.5v8c0,1.1,0.3,1.4,1.4,1.4l0,0.4
				c-1,0-1.8,0-2.3,0c-0.5,0-1.3,0-2.4,0l0-0.4c1.1,0,1.4-0.3,1.4-1.4v-8H38c-2.2,0-2.5,0.2-2.5,1.6l-0.5,0L35,9.9c2,0,3.5,0,4.5,0
				C40.5,9.9,41.9,9.9,43.9,9.9"/>
			<path id="Fill-3" class="st2" d="M44.8,20.1c1,0,1.1-0.2,1.1-1.6v-6.7c0-1.4-0.1-1.6-1.1-1.6l0-0.4c1.4-0.1,1.7-0.1,2.9-0.3v4.6
				c0.8-0.8,1.4-1.2,2.3-1.2c1.5,0,2.3,0.9,2.3,2.6v3c0,1.4,0.1,1.6,1.1,1.6l0,0.4c-0.9,0-1.5-0.1-1.9-0.1c-0.4,0-1,0-1.8,0.1l0-0.4
				c0.8-0.1,0.9-0.3,0.9-1.6v-2.2c0-1.9-0.3-2.5-1.3-2.5c-0.5,0-1.1,0.3-1.3,0.9c-0.1,0.2-0.1,0.4-0.2,0.6c0,0.1,0,0.1,0,0.2v3.1
				c0,1.3,0.1,1.5,0.9,1.6l0,0.4c-0.8,0-1.4-0.1-1.9-0.1c-0.4,0-1.1,0-1.9,0.1L44.8,20.1"/>
			<path id="Fill-4" class="st2" d="M55.8,15.8c1.4,0,1.8-0.1,3.1-0.2c-0.2-1.4-0.7-2.1-1.6-2.1C56.4,13.4,55.9,14.2,55.8,15.8
				 M60.5,19c-0.9,1.1-1.8,1.6-3,1.6c-2.1,0-3.5-1.5-3.5-3.7c0-2.4,1.4-4,3.5-4c1.1,0,1.9,0.4,2.5,1.3c0.4,0.6,0.5,1.1,0.5,2.1h-4.7
				c0.1,2.2,0.9,3.5,2.2,3.5c0.8,0,1.5-0.4,2.2-1.2L60.5,19"/>
			<path id="Fill-5" class="st2" d="M5.7,34.1c1.2,0,1.5-0.4,1.5-1.6v-7.7c0-1.2-0.3-1.6-1.5-1.6l0-0.4l2.5,0l4-0.1l1.1,0l0.1,2.4
				l-0.7,0c-0.1-1.5-0.4-1.7-2.7-1.7H9.5l-0.2,0v4.4c0.3,0,0.6,0,0.7,0c0.3,0,0.5,0,0.8,0c1.3,0,1.6-0.3,1.6-1.5H13c0,1,0,1.5,0,2
				c0,0.4,0,0.9,0,1.7h-0.5c-0.1-1.2-0.3-1.4-1.6-1.4l-0.9,0l-0.6,0v3.4c0,1.4,0.1,1.5,1.5,1.5c1.8,0,2.4-0.4,2.5-2l0.7,0l-0.4,2.7
				l-1.3,0l-4,0l-2.7,0L5.7,34.1"/>
			<path id="Fill-6" class="st2" d="M22.3,33.4c-0.9,1-1.7,1.3-2.8,1.3c-2.2,0-3.6-1.7-3.6-4.2c0-2.7,1.5-4.3,3.8-4.3
				c0.6,0,1.3,0.1,2.2,0.4l0,1.9l-0.7,0c-0.3-1.4-0.6-1.8-1.5-1.8c-1.2,0-1.9,1.1-1.9,3.2c0,2.5,0.8,3.9,2.2,3.9c0.7,0,1.3-0.3,2-1
				L22.3,33.4"/>
			<path id="Fill-7" class="st2" d="M26.1,30.6c0.2,2.3,0.9,3.6,2.2,3.6c1.2,0,1.9-1.2,1.9-3.3c0-2.4-1-4.1-2.3-4.1
				c-1.2,0-1.8,1-1.8,3.1C26.1,30.1,26.1,30.4,26.1,30.6 M24.1,30.8v-0.2c0-2.8,1.5-4.3,4-4.3c2.4,0,4,1.7,4,4.3
				c0,2.5-1.6,4.3-4.1,4.3C25.7,34.7,24.2,33.2,24.1,30.8"/>
			<path id="Fill-8" class="st2" d="M34.1,34.2c1.1,0,1.2-0.2,1.2-1.8v-3.8c0-1.5-0.2-1.7-1.2-1.7l0-0.4c1.4-0.1,1.8-0.1,3-0.4
				l0.1,1.5c0.9-1,1.7-1.4,2.6-1.4c1.6,0,2.5,1,2.5,2.9v3.4c0,0.1,0,0.3,0,0.4c0,1,0.3,1.4,1.3,1.4l0,0.4c-1,0-1.7-0.1-2.2-0.1
				c-0.5,0-1.2,0-2,0.1l0-0.4c0.8-0.1,0.9-0.3,0.9-1.8l0-1V30c0-2.1-0.4-2.7-1.4-2.7c-0.6,0-1.2,0.3-1.5,0.9
				c-0.1,0.2-0.2,0.6-0.2,0.8v3.5c0,1.5,0.1,1.6,1,1.8l0.1,0.4c-0.9,0-1.6-0.1-2.1-0.1c-0.5,0-1.2,0-2.1,0.1L34.1,34.2"/>
			<path id="Fill-9" class="st2" d="M47.1,30.6c0.2,2.3,0.9,3.6,2.2,3.6c1.2,0,1.9-1.2,1.9-3.3c0-2.4-1-4.1-2.3-4.1
				c-1.2,0-1.8,1-1.8,3.1C47.1,30.1,47.1,30.4,47.1,30.6 M45.1,30.8v-0.2c0-2.8,1.5-4.3,4-4.3c2.4,0,4.1,1.7,4.1,4.3
				c0,2.5-1.6,4.3-4.1,4.3C46.7,34.7,45.1,33.2,45.1,30.8"/>
			<path id="Fill-10" class="st2" d="M55,34.2c1.1,0,1.3-0.2,1.3-1.8v-3.8c0-1.5-0.2-1.7-1.3-1.7l0-0.4c1.5-0.1,1.8-0.1,3-0.4
				l0.1,1.5c0.9-1,1.7-1.4,2.6-1.4c1.1,0,1.8,0.5,2.2,1.5c1-1.1,1.7-1.5,2.8-1.5c1.6,0,2.4,1.1,2.4,2.9v3.4c0,0.1,0,0.3,0,0.4
				c0,1,0.3,1.4,1.3,1.4l0,0.4c-1,0-1.7-0.1-2.1-0.1c-0.4,0-1.1,0-2,0.1l0-0.4c0.9-0.1,1-0.3,1-1.8V30c0-2-0.4-2.7-1.4-2.7
				c-0.6,0-1.2,0.4-1.5,0.9c-0.1,0.2-0.2,0.4-0.2,0.6c0,0.1,0,0.1,0,0.2v3.5c0,1.5,0.1,1.6,1,1.8l0,0.4c-0.9,0-1.5-0.1-2-0.1
				c-0.4,0-1.1,0-1.9,0.1l0-0.4c0.9-0.1,1-0.3,1-1.8V30c0-2-0.4-2.7-1.4-2.7c-0.6,0-1.2,0.3-1.5,0.9c-0.1,0.3-0.2,0.6-0.2,0.8v3.5
				c0,1.5,0.1,1.6,1,1.8l0,0.4c-0.9,0-1.6-0.1-2-0.1c-0.5,0-1.2,0-2.1,0.1L55,34.2"/>
			<path id="Fill-11" class="st2" d="M72,23.4c0-0.6,0.5-1.1,1.1-1.1c0.6,0,1.1,0.5,1.1,1.1c0,0.6-0.5,1.1-1.1,1.1
				C72.4,24.5,72,24,72,23.4 M74.1,26.1v5.3l0,1c0,1.5,0.2,1.8,1.3,1.8l0,0.4c-1,0-1.8-0.1-2.3-0.1c-0.5,0-1.2,0-2.2,0.1l0-0.4
				c1.1,0,1.2-0.2,1.2-1.8l0-1v-1.7l0-1.1c0-1.5-0.2-1.7-1.2-1.7l0-0.4C72.4,26.4,72.7,26.4,74.1,26.1"/>
			<path id="Fill-12" class="st2" d="M77.4,34.3l-0.1-1.7l0.8,0c0.4,1.3,0.6,1.5,1.5,1.5c0.8,0,1.3-0.4,1.3-1c0-0.6-0.3-1-1.4-1.7
				c-0.5-0.4-0.9-0.6-1.1-0.8c-0.4-0.3-0.7-0.7-0.9-1.2c-0.1-0.2-0.1-0.5-0.1-0.9c0-1.5,1-2.4,2.6-2.4c0.6,0,0.9,0,2.2,0.4l0,1.6
				l-0.8,0c-0.2-1.1-0.5-1.4-1.3-1.4c-0.7,0-1.3,0.4-1.3,1c0,0.6,0.3,0.9,1.1,1.5c0.8,0.5,1.4,1,1.8,1.3c0.5,0.4,0.7,1,0.7,1.6
				c0,1.4-1.2,2.6-2.8,2.6C79,34.7,78.4,34.6,77.4,34.3"/>
			<path id="Fill-13" class="st2" d="M84.2,26.7c1.3-0.1,1.8-0.7,2.2-2.4h0.7v2.2h2.1l-0.2,0.9h-1.8v4c0,2,0.3,2.5,1.4,2.5
				c0.3,0,0.5,0,0.9-0.1v0.5c-0.6,0.3-1.3,0.5-2.1,0.5c-0.7,0-1.4-0.4-1.7-1c-0.2-0.5-0.3-1-0.3-2.1v-4.2h-1.1V26.7"/>
			<polygon id="Fill-14" points="95,47.6 190,47.6 190,0.1 95,0.1 			"/>
			<polygon id="Fill-15" class="st2" points="105.7,20.6 107,20.6 107,12.9 105.7,12.9 			"/>
			<path id="Fill-16" class="st2" d="M109.2,20.6v-7.7h1.2c2.6,3.9,2.9,4.4,3.4,5.2c0-0.9,0-2,0-5.2h1.3v7.7h-1.1
				c-2.7-4.2-3-4.7-3.4-5.4c0,0.7,0,1.1,0,5.4H109.2"/>
			<polyline id="Fill-17" class="st2" points="118.5,20.6 118.5,14.2 116.5,14.2 116.5,12.9 121.8,12.9 121.8,14.2 119.8,14.2 
				119.8,20.6 118.5,20.6 			"/>
			<polyline id="Fill-18" class="st2" points="123.4,20.6 123.4,12.9 127.6,12.9 127.6,14.2 124.7,14.2 124.7,16 127.4,16 
				127.4,17.2 124.7,17.2 124.7,19.4 127.8,19.4 127.8,20.6 123.4,20.6 			"/>
			<polyline id="Fill-19" class="st2" points="129.6,20.6 129.6,12.9 130.9,12.9 130.9,19.3 134,19.3 134,20.6 129.6,20.6 			"/>
			<polyline id="Fill-20" class="st2" points="135.3,20.6 135.3,12.9 136.6,12.9 136.6,19.3 139.7,19.3 139.7,20.6 135.3,20.6 			
				"/>
			<polygon id="Fill-21" class="st2" points="141,20.6 142.3,20.6 142.3,12.9 141,12.9 			"/>
			<path id="Fill-22" class="st2" d="M147.6,20.7c-2.1,0-3.5-1.6-3.5-4c0-2.4,1.5-4,3.5-4c1.2,0,1.9,0.2,2.3,0.6v1.4
				c-0.5-0.5-1.3-0.7-2.1-0.7c-1.4,0-2.4,1-2.4,2.8c0,1.8,1,2.7,2.3,2.7c0.5,0,1-0.1,1.2-0.3v-1.5h-1.3v-1.2h2.6v3.6
				C149.7,20.4,148.7,20.7,147.6,20.7"/>
			<polyline id="Fill-23" class="st2" points="152.3,20.6 152.3,12.9 156.5,12.9 156.5,14.2 153.6,14.2 153.6,16 156.3,16 
				156.3,17.2 153.6,17.2 153.6,19.4 156.7,19.4 156.7,20.6 152.3,20.6 			"/>
			<path id="Fill-24" class="st2" d="M158.6,20.6v-7.7h1.2c2.6,3.9,2.9,4.4,3.4,5.2c0-0.9,0-2,0-5.2h1.3v7.7h-1.1
				c-2.7-4.2-3-4.7-3.4-5.4c0,0.7,0,1.1,0,5.4H158.6"/>
			<path id="Fill-25" class="st2" d="M169.6,20.7c-2,0-3.5-1.5-3.5-3.9c0-2.4,1.5-4,3.5-4c1,0,1.7,0.2,2.2,0.6v1.4
				c-0.5-0.6-1.3-0.7-2-0.7c-1.4,0-2.4,1-2.4,2.8c0,1.9,1.1,2.7,2.4,2.7c0.7,0,1.4-0.2,1.9-0.7v1.3
				C171.2,20.5,170.6,20.7,169.6,20.7"/>
			<polyline id="Fill-26" class="st2" points="173.5,20.6 173.5,12.9 177.7,12.9 177.7,14.2 174.8,14.2 174.8,16 177.5,16 
				177.5,17.2 174.8,17.2 174.8,19.4 177.9,19.4 177.9,20.6 173.5,20.6 			"/>
			<path id="Fill-27" class="st2" d="M131,27v4.4c0,0.5,0,0.9,0.2,1.3c0.2,0.6,0.8,0.9,1.5,0.9c0.8,0,1.3-0.3,1.5-1
				c0.1-0.3,0.1-0.7,0.1-1.2V27h1.3v4.4c0,0.8-0.1,1.4-0.3,1.8c-0.4,1-1.3,1.6-2.7,1.6c-1.2,0-2.2-0.5-2.6-1.5
				c-0.2-0.5-0.3-1.1-0.3-1.8V27H131"/>
			<path id="Fill-28" class="st2" d="M137.7,34.7V27h1.2c2.6,3.9,2.9,4.4,3.4,5.2c0-0.9,0-2,0-5.2h1.3v7.7h-1.1
				c-2.7-4.2-3-4.7-3.4-5.4c0,0.7,0,1.1,0,5.4H137.7"/>
			<polygon id="Fill-29" class="st2" points="145.7,34.7 147,34.7 147,27 145.7,27 			"/>
			<polyline id="Fill-30" class="st2" points="150.5,34.7 150.5,28.3 148.5,28.3 148.5,27 153.8,27 153.8,28.3 151.8,28.3 
				151.8,34.7 150.5,34.7 			"/>
		</g>
	</g>
</g>
</svg>
