<svg xmlns="http://www.w3.org/2000/svg" width="302" height="48" viewBox="0 0 302 48">
    <g fill="none" fill-rule="nonzero">
        <path fill="#121212" d="M212.816 30h-2.464l-4.272-11.296h2.8c2.224 6.256 2.544 7.152 2.784 7.968.256-.832.528-1.68 2.752-7.968h2.672L212.816 30zm8.452 0h-2.608V18.704h2.608V30zm10.276 0h-7.456V18.704h7.152v2.32h-4.56v2.048h4.208v2.256h-4.208v2.336h4.864V30zm6.564 0h-2.384l-3.2-11.296h2.8c1.344 5.12 1.696 6.512 1.888 7.6.272-1.088.688-2.416 2.352-7.6h2.08c1.68 5.2 2 6.304 2.352 7.584.256-1.2.56-2.56 1.936-7.584h2.64L245.308 30h-2.368c-1.744-5.728-2.048-6.672-2.368-7.856-.336 1.2-.576 2.08-2.464 7.856zm11.684-.928v-2.576c1.104.944 2.816 1.44 4 1.44 1.104 0 1.568-.368 1.568-1.056 0-.512-.336-.8-1.248-1.152l-1.472-.56c-2-.736-2.816-1.712-2.816-3.392 0-1.92 1.392-3.28 4.256-3.28 1.184 0 2.528.336 3.296.848v2.512c-.928-.688-2.384-1.104-3.472-1.104-1.008 0-1.456.384-1.456.976 0 .576.336.8 1.088 1.088l1.472.56c2.432.928 2.992 1.936 2.992 3.424 0 1.84-1.264 3.392-4.336 3.392-1.568 0-3.056-.512-3.872-1.12zm14.74.928h-2.384l-3.2-11.296h2.8c1.344 5.12 1.696 6.512 1.888 7.6.272-1.088.688-2.416 2.352-7.6h2.08c1.68 5.2 2 6.304 2.352 7.584.256-1.2.56-2.56 1.936-7.584h2.64L271.732 30h-2.368c-1.744-5.728-2.048-6.672-2.368-7.856-.336 1.2-.576 2.08-2.464 7.856zm14.692 0h-2.608V18.704h2.608V30zm5.412 0h-2.592V18.704h3.2c.976 0 2 .064 2.64.224 1.568.4 2.368 1.296 2.368 2.976 0 1.472-.752 2.368-2 2.944.96.448 1.472 1.472 3.216 5.152h-2.88c-1.312-2.848-1.76-3.696-2.288-4.096-.176-.128-.512-.208-.912-.208h-.752V30zm0-6.4h1.04c.32 0 .752-.032 1.088-.144.592-.208.816-.64.816-1.28 0-.624-.256-1.104-1.12-1.264-.352-.064-.832-.08-1.216-.08h-.608V23.6zm15.972 6.4h-7.456V18.704h7.152v2.32h-4.56v2.048h4.208v2.256h-4.208v2.336h4.864V30z"/>
        <path fill="#E3120B" d="M0 0h95v48H0z"/>
        <path fill="#FFF" d="M44.377 10.332l.05 2.278-.537.033c-.05-1.396-.336-1.58-2.488-1.58h-.454v7.963c0 1.097.286 1.396 1.379 1.43l.033.382c-1.042-.017-1.832-.017-2.336-.017-.521 0-1.345 0-2.421.017l.034-.383c1.109-.033 1.395-.315 1.395-1.43v-7.978h-.538c-2.202 0-2.505.183-2.538 1.58l-.538-.034.05-2.277c2.017.016 3.53.033 4.539.033.941.017 2.42 0 4.37-.017zm.891 10.14c.992 0 1.127-.183 1.143-1.562v-6.65c-.016-1.379-.15-1.578-1.143-1.578l-.033-.35c1.361-.066 1.664-.116 2.891-.332v4.521c.79-.83 1.429-1.18 2.32-1.18 1.462 0 2.27.881 2.27 2.56v3.009c.016 1.38.15 1.562 1.142 1.562l.034.35c-.857-.034-1.513-.067-1.95-.067-.42 0-1.025.033-1.85.066l.034-.349c.79-.116.858-.266.875-1.562v-2.211c0-1.845-.32-2.46-1.312-2.46-.52 0-1.092.332-1.328.847a3.614 3.614 0 0 0-.201.549c-.017.083-.017.133-.017.166v3.092c0 1.313.084 1.446.874 1.562l.034.35c-.84-.034-1.446-.067-1.866-.067-.437 0-1.093.033-1.933.067l.016-.333zm15.768-1.08c-.924 1.13-1.832 1.595-3.009 1.595-2.067 0-3.48-1.496-3.48-3.69 0-2.36 1.446-3.956 3.53-3.956 1.127 0 1.934.416 2.489 1.28.37.615.47 1.047.487 2.094h-4.724c.068 2.195.875 3.458 2.236 3.458.807 0 1.496-.366 2.22-1.197l.251.416zm-4.74-3.225c1.378-.033 1.782-.067 3.143-.2-.185-1.43-.723-2.094-1.647-2.094-.891-.017-1.345.682-1.496 2.294zM6.05 34.385c1.21-.033 1.53-.35 1.53-1.58V25.16c0-1.214-.32-1.546-1.53-1.58L6 23.182l2.538.033 4.018-.05 1.059.017.067 2.36-.655.05c-.118-1.48-.387-1.646-2.757-1.646H9.9l-.168.017v4.405c.32 0 .571.016.706.016.269.017.504.034.756.034 1.295 0 1.597-.266 1.614-1.48h.572c-.05.964-.05 1.463-.05 1.962 0 .399 0 .947.016 1.678h-.538c-.067-1.163-.336-1.396-1.58-1.412l-.891-.017-.622.033v3.408c0 1.38.084 1.446 1.48 1.446 1.848 0 2.386-.399 2.554-1.962l.656.034-.387 2.71-1.277.016-4.018-.033L6 34.817l.05-.432zm16.71-.731c-.942.964-1.698 1.33-2.79 1.33-2.186 0-3.581-1.68-3.581-4.206 0-2.643 1.479-4.289 3.866-4.289.622 0 1.26.117 2.236.383l.033 1.928-.74.05c-.268-1.43-.57-1.779-1.529-1.779-1.244 0-1.883 1.064-1.883 3.158 0 2.444.773 3.824 2.186 3.824.722 0 1.31-.316 1.966-.998l.236.599zm1.765-2.577v-.25c0-2.742 1.496-4.321 4.068-4.321 2.37 0 4.051 1.729 4.051 4.255 0 2.527-1.63 4.239-4.102 4.239-2.353 0-3.933-1.563-4.017-3.923zm2.034-.183c.168 2.294.941 3.557 2.219 3.557 1.193 0 1.9-1.213 1.9-3.24 0-2.411-.976-4.073-2.337-4.073-1.21 0-1.816.997-1.816 3.025 0 .233 0 .482.034.731zm8.035 3.524c1.076 0 1.244-.216 1.244-1.745v-3.757c0-1.48-.168-1.695-1.244-1.712l-.034-.366c1.446-.083 1.782-.133 3.026-.399l.084 1.447c.942-1.014 1.664-1.397 2.656-1.397 1.614 0 2.522 1.03 2.522 2.843v3.34c-.017.134-.017.267-.017.383 0 1.047.286 1.347 1.294 1.347l.034.382c-.958-.033-1.681-.067-2.169-.067-.453 0-1.16.034-2.034.067l.034-.382c.857-.133.958-.3.958-1.746l.017-.997v-1.446c0-2.045-.387-2.71-1.429-2.71-.639 0-1.193.333-1.53.915-.134.249-.252.631-.252.797v3.474c.017 1.447.101 1.613.975 1.746l.05.382c-.924-.033-1.613-.066-2.084-.066-.487 0-1.193.033-2.118.066l.017-.399zm10.96-3.34v-.25c0-2.743 1.513-4.322 4.068-4.322 2.404 0 4.085 1.729 4.085 4.255 0 2.527-1.63 4.239-4.135 4.239-2.354 0-3.934-1.563-4.018-3.923zm2.051-.184c.168 2.294.941 3.557 2.185 3.557 1.194 0 1.9-1.213 1.9-3.24 0-2.411-.975-4.073-2.32-4.073-1.193 0-1.799.997-1.799 3.025 0 .233 0 .482.034.731zm7.951 3.524c1.11 0 1.278-.216 1.278-1.745v-3.757c0-1.48-.168-1.695-1.278-1.712l-.033-.366c1.479-.083 1.815-.133 3.059-.399l.067 1.447c.925-.998 1.664-1.397 2.64-1.397 1.126 0 1.781.45 2.252 1.513 1.009-1.114 1.748-1.513 2.757-1.513 1.563 0 2.437 1.048 2.437 2.843v3.34c0 .134-.017.267-.017.383 0 1.047.303 1.347 1.295 1.347l.033.382c-.958-.033-1.68-.067-2.151-.067-.454 0-1.127.034-2.034.067l.033-.382c.874-.133.959-.3.975-1.746v-2.443c0-2.012-.353-2.71-1.395-2.71-.605 0-1.244.366-1.513.915-.084.199-.168.382-.218.615-.017.083-.034.15-.034.182v3.474c0 1.447.1 1.613.975 1.746l.034.382c-.874-.033-1.53-.066-1.967-.066-.42 0-1.076.033-1.933.066l.033-.382c.874-.133.958-.3.975-1.746v-2.443c0-2.011-.37-2.71-1.395-2.71a1.67 1.67 0 0 0-1.496.915c-.135.266-.235.631-.235.798v3.44c.016 1.447.084 1.613.975 1.746l.033.382c-.908-.033-1.58-.066-2.034-.066-.487 0-1.193.033-2.151.066l.033-.399zm19.096-7.962v5.236l.017.997c0 1.53.151 1.746 1.278 1.746l.033.382c-1.025-.033-1.765-.066-2.286-.066-.487 0-1.227.033-2.219.066l.034-.382c1.093 0 1.244-.216 1.244-1.746l.017-.997V29.98l-.017-1.047c0-1.48-.151-1.696-1.244-1.712l-.034-.366c1.496-.1 1.85-.15 3.177-.399zm-2.118-2.71c0-.598.488-1.08 1.093-1.08.622 0 1.11.499 1.11 1.08 0 .616-.471 1.114-1.11 1.114-.622-.016-1.093-.482-1.093-1.113zm5.447 10.772l-.067-1.662.84-.034c.387 1.247.639 1.496 1.513 1.496.756 0 1.26-.382 1.26-.98 0-.549-.352-.964-1.395-1.646-.52-.366-.89-.598-1.092-.748-.437-.332-.74-.715-.908-1.147-.1-.25-.151-.532-.151-.88 0-1.447 1.025-2.411 2.589-2.411.571 0 .907.05 2.218.366l.034 1.612-.84.033c-.185-1.064-.522-1.446-1.295-1.446-.74 0-1.277.416-1.277.997 0 .566.269.915 1.126 1.447.773.498 1.378.964 1.782 1.313.47.432.723.997.723 1.612 0 1.446-1.228 2.543-2.808 2.543-.622.017-1.193-.116-2.252-.465zm6.808-7.53c1.311-.1 1.799-.648 2.168-2.344h.74v2.194h2.084l-.235.898h-1.849v3.973c0 1.978.269 2.443 1.395 2.443.27 0 .505-.033.908-.15v.466c-.555.316-1.345.482-2.135.482-.74 0-1.412-.399-1.698-1.014-.252-.498-.336-1.014-.336-2.094v-4.14h-1.059v-.714h.017z"/>
        <path fill="#000" d="M96 0h95v48H96z"/>
        <path fill="#FFF" d="M106 20.795v-7.661h1.32v7.661H106zm3.522 0v-7.661h1.22c2.624 3.922 2.946 4.356 3.403 5.14-.034-.884-.05-1.969-.05-5.14h1.27v7.661h-1.118c-2.71-4.173-3.065-4.69-3.472-5.341.017.667.017 1.085.017 5.341h-1.27zm9.415 0v-6.393h-2.032v-1.268h5.419v1.268h-2.066v6.393h-1.32zm4.91 0v-7.661h4.285v1.251h-2.963v1.853h2.76v1.219h-2.76v2.103h3.15v1.235h-4.471zm6.35 0v-7.661h1.322v6.393h3.098v1.268h-4.42zm5.758 0v-7.661h1.321v6.393h3.099v1.268h-4.42zm5.758 0v-7.661h1.32v7.661h-1.32zm6.62.134c-2.1 0-3.522-1.57-3.522-3.94 0-2.403 1.524-3.989 3.573-3.989 1.237 0 1.897.234 2.371.568v1.385c-.542-.517-1.27-.734-2.117-.734-1.456 0-2.438 1.034-2.438 2.77 0 1.786 1.016 2.704 2.337 2.704.542 0 .982-.133 1.236-.267v-1.468h-1.338v-1.219h2.608v3.539c-.593.35-1.575.65-2.71.65zm4.759-.134v-7.661h4.284v1.251h-2.963v1.853h2.76v1.219h-2.76v2.103h3.15v1.235h-4.471zm6.35 0v-7.661h1.22c2.624 3.922 2.946 4.356 3.403 5.14-.034-.884-.051-1.969-.051-5.14h1.27v7.661h-1.118c-2.709-4.173-3.065-4.69-3.471-5.341.017.667.017 1.085.017 5.341h-1.27zm11.142.134c-1.998 0-3.505-1.503-3.505-3.923 0-2.404 1.507-4.006 3.556-4.006.999 0 1.71.167 2.235.568v1.385c-.542-.55-1.287-.734-1.998-.734-1.44 0-2.422.984-2.422 2.77 0 1.87 1.118 2.721 2.473 2.721a3.04 3.04 0 0 0 1.93-.668v1.286c-.593.4-1.287.6-2.269.6zm3.946-.134v-7.661h4.284v1.251h-2.964v1.853h2.76v1.219h-2.76v2.103H179v1.235h-4.47zm-42.91 6.393v4.407c0 .534.051.901.153 1.252.203.617.762.918 1.49.918.813 0 1.338-.334 1.524-1.002a4.91 4.91 0 0 0 .135-1.202v-4.356h1.287v4.407c0 .75-.084 1.352-.254 1.819C135.6 34.432 134.617 35 133.23 35c-1.236 0-2.235-.484-2.625-1.502-.186-.484-.27-1.085-.27-1.82v-4.473h1.286v-.017zm6.723 7.662v-7.662h1.22c2.624 3.923 2.945 4.357 3.403 5.141-.034-.884-.051-1.97-.051-5.14h1.27v7.66h-1.118c-2.71-4.172-3.065-4.69-3.471-5.34.017.667.017 1.084.017 5.34h-1.27zm8.06 0v-7.662h1.321v7.662h-1.32zm4.877 0v-6.393h-2.032v-1.269h5.419v1.269H152.6v6.393h-1.321z"/>
    </g>
</svg>
