<svg xmlns="http://www.w3.org/2000/svg" width="22" height="22" viewBox="0 0 22 22">
    <g fill="none" fill-rule="evenodd">
        <g fill="#3C4FAF">
            <path fill-rule="nonzero" d="M18.48 0H3.52A3.53 3.53 0 0 0 0 3.52v14.96A3.53 3.53 0 0 0 3.52 22h14.96A3.53 3.53 0 0 0 22 18.48V3.52A3.53 3.53 0 0 0 18.48 0zm2.2 18.48c0 1.21-.99 2.2-2.2 2.2H3.52c-1.21 0-2.2-.99-2.2-2.2V3.52c0-1.21.99-2.2 2.2-2.2h14.96c1.21 0 2.2.99 2.2 2.2v14.96z"/>
            <path d="M13.178 16.896H8.844a.15.15 0 0 1-.154-.154V9.35a.197.197 0 0 0-.198-.198H4.62a.15.15 0 0 1-.154-.154V5.192a.15.15 0 0 1 .154-.154h12.76a.15.15 0 0 1 .154.154V9.02a.15.15 0 0 1-.154.154h-3.894a.15.15 0 0 0-.154.154v7.414a.15.15 0 0 1-.154.154z"/>
        </g>
        <path d="M-1-1h24v24H-1z"/>
    </g>
</svg>
