<?xml version="1.0" encoding="UTF-8"?>
<svg width="24px" height="24px" viewBox="0 0 24 24" version="1.1" xmlns="http://www.w3.org/2000/svg" xmlns:xlink="http://www.w3.org/1999/xlink">
    <!-- Generator: Sketch 57.1 (83088) - https://sketch.com -->
    <title>Headphone</title>
    <desc>Created with Sketch.</desc>
    <g id="Headphone" stroke="none" stroke-width="1" fill="none" fill-rule="evenodd">
        <polygon id="Shape" points="-21 0 3 0 3 24 -21 24"></polygon>
        <g id="baseline-headset-24px-(1)">
            <polygon id="Shape" opacity="0.1" points="0 0 24 0 24 24 0 24"></polygon>
            <path d="M12,2 C7.03,2 3,6.03 3,11 L3,18 C3,19.66 4.34,21 6,21 L9,21 L9,13 L5,13 L5,11 C5,7.13 8.13,4 12,4 C15.87,4 19,7.13 19,11 L19,13 L15,13 L15,21 L18,21 C19.66,21 21,19.66 21,18 L21,11 C21,6.03 16.97,2 12,2 Z" id="Shape" fill="#3C4FAF"></path>
        </g>
    </g>
</svg>