<?xml version="1.0" encoding="UTF-8"?>
<svg width="20px" height="18px" viewBox="0 0 20 18" version="1.1" xmlns="http://www.w3.org/2000/svg" xmlns:xlink="http://www.w3.org/1999/xlink">
    <!-- Generator: Sketch 55.1 (78136) - https://sketchapp.com -->
    <title>icn_twitter</title>
    <desc>Created with Sketch.</desc>
    <g id="Foundation/UI-icons" stroke="none" stroke-width="1" fill="none" fill-rule="evenodd">
        <g id="Icons" transform="translate(-388.000000, -175.000000)" fill="#000000">
            <g id="icn_twitter" transform="translate(388.000000, 175.000000)">
                <g id="Path">
                    <path d="M20,2.586 C19.2549889,2.92504291 18.4642143,3.15280757 17.653,3.262 C18.5193444,2.72240232 19.1582042,1.88434357 19.449,0.906 C18.6471826,1.4020023 17.7622776,1.74891757 16.837,1.93 C16.0713141,1.08041801 14.980705,0.596187595 13.837,0.597994931 C11.5341542,0.639620773 9.69934239,2.53705414 9.735,4.84 C9.73759699,5.16355353 9.77175885,5.48608168 9.837,5.803 C6.51277696,5.61919348 3.43098974,4.00499345 1.387,1.377 C1.02659836,2.02946865 0.837378102,2.76261116 0.837,3.508 C0.823507543,4.91069247 1.503029,6.2296975 2.653,7.033 C1.99869148,7.01649681 1.35946025,6.83302334 0.796,6.5 L0.796,6.561 C0.771929801,8.54952083 2.14195514,10.2839412 4.082,10.721 C3.73011275,10.8207768 3.36574178,10.8696066 3,10.866 C2.73929643,10.8702139 2.4790492,10.842678 2.225,10.784 C2.73630669,12.4987347 4.29320955,13.6895212 6.082,13.734 C4.64515056,14.9168543 2.84109393,15.5621705 0.98,15.559 C0.652360065,15.5587893 0.325054181,15.5380822 -2.22044605e-16,15.497 C1.86063704,16.7402044 4.04824956,17.403518 6.286,17.4030003 C13.836,17.4030003 17.959,10.948 17.959,5.333 C17.9625119,5.1484391 17.9558351,4.96382503 17.939,4.78 C18.7570049,4.18381394 19.4560652,3.439642 20,2.586" fill-rule="nonzero"></path>
                </g>
            </g>
        </g>
    </g>
</svg>