<?xml version="1.0" encoding="UTF-8"?>
<svg width="18px" height="18px" viewBox="0 0 18 18" version="1.1" xmlns="http://www.w3.org/2000/svg" xmlns:xlink="http://www.w3.org/1999/xlink">
    <!-- Generator: Sketch 55.1 (78136) - https://sketchapp.com -->
    <title>icn_linkedin</title>
    <desc>Created with Sketch.</desc>
    <g id="Foundation/UI-icons" stroke="none" stroke-width="1" fill="none" fill-rule="evenodd">
        <g id="Icons" transform="translate(-390.000000, -232.000000)" fill="#000000">
            <g id="icn_linkedin" transform="translate(389.000000, 231.000000)">
                <g id="Shape">
                    <path d="M5,3 C5.03310204,3.53990213 4.83304152,4.06807085 4.45055618,4.45055618 C4.06807085,4.83304152 3.53990213,5.03310204 3,5 C2.48075138,5.02084063 1.97517316,4.83064108 1.59841512,4.47272093 C1.22165707,4.11480078 1.0057974,3.61963434 1,3.1 C0.980298838,2.55452735 1.18141829,2.02416129 1.55785161,1.6289063 C1.93428494,1.23365131 2.45421549,1.00691487 3,1 C3.53507705,0.984350875 4.05292806,1.19003515 4.43144646,1.56855354 C4.80996485,1.94707194 5.01564913,2.46492295 5,3 L5,3 Z M1,19 L5,19 L5,6 L1,6 L1,19 Z M14.6,6.2 C13.0710056,6.15741382 11.6305527,6.91554689 10.8,8.2 L10.7,8.2 L10.5,6.5 L6.9,6.5 C6.9,7.6 7,8.9 7,10.4 L7,19 L11,19 L11,11.9 C10.9784137,11.5634408 11.0121958,11.2256201 11.1,10.9 C11.330018,10.0177552 12.0914802,9.37652384 13,9.3 C14.4,9.3 15,10.5 15,12.1 L15,19 L19,19 L19,11.6 C19,7.9 17.1,6.2 14.6,6.2 Z" fill-rule="nonzero"></path>
                </g>
            </g>
        </g>
    </g>
</svg>