<?xml version="1.0" encoding="UTF-8"?>
<svg width="18px" height="18px" viewBox="0 0 18 18" version="1.1" xmlns="http://www.w3.org/2000/svg" xmlns:xlink="http://www.w3.org/1999/xlink">
    <!-- Generator: Sketch 55.1 (78136) - https://sketchapp.com -->
    <title>icn_instagram</title>
    <desc>Created with Sketch.</desc>
    <g id="Foundation/UI-icons" stroke="none" stroke-width="1" fill="none" fill-rule="evenodd">
        <g id="Icons" transform="translate(-389.000000, -353.000000)" fill="#000000">
            <g id="icn_instagram" transform="translate(389.000000, 353.000000)">
                <g id="Shape">
                    <path d="M9,0 C6.556,0 6.25,0.01 5.29,0.054 C4.54327199,0.0687944133 3.80446176,0.210132021 3.105,0.472 C1.8954563,0.939331819 0.939331819,1.8954563 0.472,3.105 C0.210242969,3.8041461 0.0689071559,4.54260882 0.054,5.289 C0.01,6.25 0,6.556 0,9 C0,11.444 0.01,11.75 0.054,12.71 C0.0687944133,13.456728 0.210132021,14.1955382 0.472,14.895 C0.93956608,16.1041645 1.89565798,17.0598933 3.105,17.527 C3.80408666,17.7890984 4.54255117,17.9307727 5.289,17.946 C6.25,17.99 6.556,18 9,18 C11.444,18 11.75,17.99 12.71,17.946 C13.4567857,17.9308854 14.1955977,17.7892093 14.895,17.527 C16.1039628,17.059659 17.059659,16.1039628 17.527,14.895 C17.7890984,14.1959133 17.9307727,13.4574488 17.946,12.711 C17.99,11.75 18,11.444 18,9 C18,6.556 17.99,6.25 17.946,5.29 C17.9308854,4.54321432 17.7892093,3.8044023 17.527,3.105 C17.059659,1.89603718 16.1039628,0.94034096 14.895,0.473 C14.1959133,0.210901606 13.4574488,0.0692273243 12.711,0.054 C11.75,0.01 11.444,0 9,0 Z M9,1.622 C11.403,1.622 11.688,1.631 12.637,1.674 C13.2073173,1.6808799 13.7722084,1.78573993 14.307,1.984 C15.0922745,2.2864933 15.7130471,2.90690264 16.016,3.692 C16.2143727,4.22710719 16.3192345,4.79234627 16.326,5.363 C16.369,6.313 16.378,6.597 16.378,9 C16.378,11.403 16.369,11.688 16.326,12.637 C16.3191201,13.2073173 16.2142601,13.7722084 16.016,14.307 C15.7135067,15.0922745 15.0930974,15.7130471 14.308,16.016 C13.7728928,16.2143727 13.2076537,16.3192345 12.637,16.326 C11.687,16.369 11.403,16.378 9,16.378 C6.597,16.378 6.312,16.369 5.363,16.326 C4.79268275,16.3191201 4.22779159,16.2142601 3.693,16.016 C2.90772545,15.7135067 2.28695287,15.0930974 1.984,14.308 C1.78562728,13.7728928 1.68076545,13.2076537 1.674,12.637 C1.631,11.687 1.622,11.403 1.622,9 C1.622,6.597 1.631,6.312 1.674,5.363 C1.6808799,4.79268275 1.78573993,4.22779159 1.984,3.693 C2.2864933,2.90772545 2.90690264,2.28695287 3.692,1.984 C4.22710719,1.78562728 4.79234627,1.68076545 5.363,1.674 C6.313,1.631 6.597,1.622 9,1.622 L9,1.622 Z M9,12 C7.34314575,12 6,10.6568542 6,9 C6,7.34314575 7.34314575,6 9,6 C10.6568542,6 12,7.34314575 12,9 C12,10.6568542 10.6568542,12 9,12 L9,12 Z M9,4.378 C6.44733989,4.378 4.378,6.44733989 4.378,9 C4.378,11.5526601 6.44733989,13.622 9,13.622 C11.5526601,13.622 13.622,11.5526601 13.622,9 C13.622,7.77416938 13.1350407,6.5985456 12.2682475,5.73175246 C11.4014544,4.86495932 10.2258306,4.378 9,4.378 Z M14.884,4.196 C14.884,3.75918078 14.6208664,3.36537359 14.2172981,3.1982101 C13.8137298,3.03104662 13.3492025,3.12344684 13.0403247,3.43232468 C12.7314468,3.74120251 12.6390466,4.20572977 12.8062101,4.60929811 C12.9733736,5.01286645 13.3671808,5.276 13.804,5.276 C14.4004675,5.276 14.884,4.79246753 14.884,4.196 L14.884,4.196 Z" fill-rule="nonzero"></path>
                </g>
            </g>
        </g>
    </g>
</svg>