<?xml version="1.0" encoding="UTF-8"?>
<svg width="16px" height="17px" viewBox="0 0 16 17" version="1.1" xmlns="http://www.w3.org/2000/svg" xmlns:xlink="http://www.w3.org/1999/xlink">
    <!-- Generator: Sketch 55.1 (78136) - https://sketchapp.com -->
    <title>icn_person</title>
    <desc>Created with Sketch.</desc>
    <g id="Foundation/UI-icons" stroke="none" stroke-width="1" fill="none" fill-rule="evenodd">
        <g id="Icons" transform="translate(-148.000000, -651.000000)">
            <g id="icn_person" transform="translate(144.000000, 649.000000)">
                <g id="Shape">
                    <path d="M12,10.1828749 C14.21,10.1828749 16,8.35195661 16,6.09143743 C16,3.83091825 14.21,2 12,2 C9.79,2 8,3.83091825 8,6.09143743 C8,8.35195661 9.79,10.1828749 12,10.1828749 Z M12,12.2285936 C9.33,12.2285936 4,13.5992251 4,16.320031 L4,18.3657497 L20,18.3657497 L20,16.320031 C20,13.5992251 14.67,12.2285936 12,12.2285936 Z" fill="#202020" fill-rule="nonzero"></path>
                    <polygon points="0 0 24 0 24 19.6388997 16.0546875 19.6388997 0 19.6388997"></polygon>
                </g>
            </g>
        </g>
    </g>
</svg>